<mxfile host="app.diagrams.net" modified="2022-10-18T04:08:53.549Z" agent="5.0 (Windows NT 10.0; Win64; x64) AppleWebKit/537.36 (KHTML, like Gecko) Chrome/106.0.0.0 Safari/537.36 Edg/106.0.1370.47" etag="9Npppd-amr6UBHMi2jKu" version="20.4.1" type="github">
  <diagram id="xbdcwXHPQUHZUbyYT70E" name="第 1 页">
    <mxGraphModel dx="735" dy="468" grid="1" gridSize="10" guides="1" tooltips="1" connect="1" arrows="1" fold="1" page="1" pageScale="1" pageWidth="827" pageHeight="1169" math="0" shadow="0">
      <root>
        <mxCell id="0" />
        <mxCell id="1" parent="0" />
        <mxCell id="7TQnCxTbO33pNNRYlMxs-25" value="" style="rounded=1;whiteSpace=wrap;html=1;fontSize=18;fillColor=#F19C99;" parent="1" vertex="1">
          <mxGeometry x="1040" y="280" width="120" height="40" as="geometry" />
        </mxCell>
        <mxCell id="7TQnCxTbO33pNNRYlMxs-26" value="&lt;font style=&quot;font-size: 18px;&quot;&gt;结束&lt;/font&gt;" style="text;html=1;strokeColor=none;fillColor=none;align=center;verticalAlign=middle;whiteSpace=wrap;rounded=0;" parent="1" vertex="1">
          <mxGeometry x="1090" y="285" width="60" height="30" as="geometry" />
        </mxCell>
        <mxCell id="7TQnCxTbO33pNNRYlMxs-23" value="回滚" style="rounded=0;whiteSpace=wrap;html=1;fontSize=18;fillColor=#A9C4EB;" parent="1" vertex="1">
          <mxGeometry x="880" y="280" width="200" height="40" as="geometry" />
        </mxCell>
        <mxCell id="_aCOL6AofIa1MBWSSgmZ-6" value="" style="endArrow=classic;html=1;rounded=0;fontSize=18;exitX=0;exitY=1;exitDx=0;exitDy=0;" parent="1" source="7TQnCxTbO33pNNRYlMxs-27" edge="1">
          <mxGeometry width="50" height="50" relative="1" as="geometry">
            <mxPoint x="320" y="320" as="sourcePoint" />
            <mxPoint x="1200" y="320" as="targetPoint" />
          </mxGeometry>
        </mxCell>
        <mxCell id="_aCOL6AofIa1MBWSSgmZ-8" value="停机" style="rounded=0;whiteSpace=wrap;html=1;fontSize=18;fillColor=#9AC7BF;" parent="1" vertex="1">
          <mxGeometry x="600" y="280" width="120" height="40" as="geometry" />
        </mxCell>
        <mxCell id="_aCOL6AofIa1MBWSSgmZ-9" value="Post-copy" style="rounded=0;whiteSpace=wrap;html=1;fontSize=18;fillColor=#E6FFCC;" parent="1" vertex="1">
          <mxGeometry x="720" y="280" width="160" height="40" as="geometry" />
        </mxCell>
        <mxCell id="_aCOL6AofIa1MBWSSgmZ-12" value="时间线" style="text;html=1;strokeColor=none;fillColor=none;align=center;verticalAlign=middle;whiteSpace=wrap;rounded=0;fontSize=18;" parent="1" vertex="1">
          <mxGeometry x="1100" y="320" width="100" height="30" as="geometry" />
        </mxCell>
        <mxCell id="_aCOL6AofIa1MBWSSgmZ-13" value="" style="fontColor=#0066CC;verticalAlign=top;verticalLabelPosition=bottom;labelPosition=center;align=center;html=1;outlineConnect=0;fillColor=#CCCCCC;strokeColor=#6881B3;gradientColor=none;gradientDirection=north;strokeWidth=2;shape=mxgraph.networks.pc;fontSize=18;" parent="1" vertex="1">
          <mxGeometry x="260" y="280" width="40" height="40" as="geometry" />
        </mxCell>
        <mxCell id="_aCOL6AofIa1MBWSSgmZ-16" value="虚拟机运行在&lt;br&gt;源物理机上" style="text;html=1;strokeColor=none;fillColor=none;align=center;verticalAlign=middle;whiteSpace=wrap;rounded=0;fontSize=18;" parent="1" vertex="1">
          <mxGeometry x="200" y="230" width="160" height="50" as="geometry" />
        </mxCell>
        <mxCell id="XhVZfR67R8h_jW9CrwFd-3" value="" style="shape=flexArrow;endArrow=classic;html=1;rounded=0;fillColor=#CCFFCC;strokeColor=none;startArrow=none;width=20;endWidth=34.11764705882353;endSize=9.8;" parent="1" edge="1">
          <mxGeometry width="50" height="50" relative="1" as="geometry">
            <mxPoint x="460" y="199.5" as="sourcePoint" />
            <mxPoint x="720" y="199.91" as="targetPoint" />
            <Array as="points">
              <mxPoint x="700" y="199.91" />
            </Array>
          </mxGeometry>
        </mxCell>
        <mxCell id="XhVZfR67R8h_jW9CrwFd-5" value="&lt;font style=&quot;font-size: 24px;&quot;&gt;......&lt;/font&gt;" style="text;html=1;strokeColor=none;fillColor=none;align=center;verticalAlign=middle;whiteSpace=wrap;rounded=0;" parent="1" vertex="1">
          <mxGeometry x="520" y="280" width="80" height="40" as="geometry" />
        </mxCell>
        <mxCell id="XhVZfR67R8h_jW9CrwFd-6" value="" style="html=1;points=[];align=center;image;fontSize=12;image=img/lib/azure2/general/Globe_Error.svg;" parent="1" vertex="1">
          <mxGeometry x="720" y="180" width="40" height="40" as="geometry" />
        </mxCell>
        <mxCell id="XhVZfR67R8h_jW9CrwFd-7" value="" style="endArrow=classic;html=1;rounded=0;fontSize=24;fillColor=#CCFFCC;dashed=1;" parent="1" edge="1">
          <mxGeometry width="50" height="50" relative="1" as="geometry">
            <mxPoint x="740" y="220" as="sourcePoint" />
            <mxPoint x="740" y="320" as="targetPoint" />
          </mxGeometry>
        </mxCell>
        <mxCell id="XhVZfR67R8h_jW9CrwFd-19" value="发生故障" style="shape=callout;whiteSpace=wrap;html=1;perimeter=calloutPerimeter;fontSize=18;size=20;position=0.42;base=20;position2=0.33;rounded=1;shadow=1;" parent="1" vertex="1">
          <mxGeometry x="700" y="130" width="120" height="50" as="geometry" />
        </mxCell>
        <mxCell id="7TQnCxTbO33pNNRYlMxs-1" value="" style="curved=1;endArrow=classic;html=1;rounded=0;strokeWidth=4;" parent="1" edge="1">
          <mxGeometry width="50" height="50" relative="1" as="geometry">
            <mxPoint x="400" y="225" as="sourcePoint" />
            <mxPoint x="450" y="175" as="targetPoint" />
            <Array as="points">
              <mxPoint x="450" y="225" />
              <mxPoint x="400" y="175" />
            </Array>
          </mxGeometry>
        </mxCell>
        <mxCell id="7TQnCxTbO33pNNRYlMxs-3" value="" style="curved=1;endArrow=classic;html=1;rounded=0;strokeWidth=4;" parent="1" edge="1">
          <mxGeometry width="50" height="50" relative="1" as="geometry">
            <mxPoint x="620" y="100" as="sourcePoint" />
            <mxPoint x="670" y="50" as="targetPoint" />
            <Array as="points">
              <mxPoint x="670" y="100" />
              <mxPoint x="620" y="50" />
            </Array>
          </mxGeometry>
        </mxCell>
        <mxCell id="7TQnCxTbO33pNNRYlMxs-4" value="&lt;font style=&quot;font-size: 18px;&quot;&gt;热迁移线程&lt;/font&gt;" style="text;html=1;strokeColor=none;fillColor=none;align=center;verticalAlign=middle;whiteSpace=wrap;rounded=0;" parent="1" vertex="1">
          <mxGeometry x="360" y="130" width="120" height="40" as="geometry" />
        </mxCell>
        <mxCell id="7TQnCxTbO33pNNRYlMxs-9" value="Pre-copy" style="rounded=0;whiteSpace=wrap;html=1;fontSize=18;fillColor=#E6FFCC;" parent="1" vertex="1">
          <mxGeometry x="440" y="280" width="160" height="40" as="geometry" />
        </mxCell>
        <mxCell id="7TQnCxTbO33pNNRYlMxs-11" value="" style="endArrow=classic;html=1;rounded=0;fontSize=18;strokeWidth=1;dashed=1;" parent="1" edge="1">
          <mxGeometry width="50" height="50" relative="1" as="geometry">
            <mxPoint x="420" y="240" as="sourcePoint" />
            <mxPoint x="420" y="320" as="targetPoint" />
          </mxGeometry>
        </mxCell>
        <mxCell id="XhVZfR67R8h_jW9CrwFd-8" value="&lt;font style=&quot;font-size: 18px;&quot;&gt;热迁移流程&lt;/font&gt;" style="text;html=1;strokeColor=none;fillColor=none;align=center;verticalAlign=middle;whiteSpace=wrap;rounded=0;fontSize=24;" parent="1" vertex="1">
          <mxGeometry x="500" y="180" width="180" height="40" as="geometry" />
        </mxCell>
        <mxCell id="7TQnCxTbO33pNNRYlMxs-12" value="" style="endArrow=classic;html=1;rounded=0;fontSize=24;fillColor=#CCFFCC;dashed=1;" parent="1" edge="1">
          <mxGeometry width="50" height="50" relative="1" as="geometry">
            <mxPoint x="640" y="120" as="sourcePoint" />
            <mxPoint x="640" y="320" as="targetPoint" />
          </mxGeometry>
        </mxCell>
        <mxCell id="7TQnCxTbO33pNNRYlMxs-13" value="&lt;font style=&quot;font-size: 18px;&quot;&gt;备份线程&lt;/font&gt;" style="text;html=1;strokeColor=none;fillColor=none;align=center;verticalAlign=middle;whiteSpace=wrap;rounded=0;" parent="1" vertex="1">
          <mxGeometry x="520" y="55" width="120" height="40" as="geometry" />
        </mxCell>
        <mxCell id="7TQnCxTbO33pNNRYlMxs-14" value="" style="shape=flexArrow;endArrow=classic;html=1;rounded=0;fillColor=#CCFFCC;strokeColor=none;startArrow=none;width=20;endWidth=34.11764705882353;endSize=9.8;" parent="1" edge="1">
          <mxGeometry width="50" height="50" relative="1" as="geometry">
            <mxPoint x="680" y="79.5" as="sourcePoint" />
            <mxPoint x="880" y="80" as="targetPoint" />
            <Array as="points" />
          </mxGeometry>
        </mxCell>
        <mxCell id="7TQnCxTbO33pNNRYlMxs-16" value="" style="shape=flexArrow;endArrow=classic;html=1;rounded=0;fillColor=#CCCCCC;strokeColor=none;startArrow=none;width=20;endWidth=34.11764705882353;endSize=9.8;" parent="1" edge="1">
          <mxGeometry width="50" height="50" relative="1" as="geometry">
            <mxPoint x="760" y="199.5" as="sourcePoint" />
            <mxPoint x="880" y="200" as="targetPoint" />
            <Array as="points">
              <mxPoint x="850" y="200" />
            </Array>
          </mxGeometry>
        </mxCell>
        <mxCell id="7TQnCxTbO33pNNRYlMxs-17" value="&lt;font style=&quot;font-size: 18px;&quot;&gt;备份流程&lt;/font&gt;" style="text;html=1;strokeColor=none;fillColor=none;align=center;verticalAlign=middle;whiteSpace=wrap;rounded=0;fontSize=24;" parent="1" vertex="1">
          <mxGeometry x="700" y="60" width="160" height="40" as="geometry" />
        </mxCell>
        <mxCell id="7TQnCxTbO33pNNRYlMxs-19" value="&lt;span style=&quot;font-size: 18px;&quot;&gt;等待&lt;/span&gt;" style="text;html=1;strokeColor=none;fillColor=none;align=center;verticalAlign=middle;whiteSpace=wrap;rounded=0;fontSize=24;" parent="1" vertex="1">
          <mxGeometry x="760" y="180" width="90" height="40" as="geometry" />
        </mxCell>
        <mxCell id="7TQnCxTbO33pNNRYlMxs-20" value="" style="endArrow=classic;html=1;rounded=0;dashed=1;fontSize=18;strokeWidth=1;fillColor=#CCCCCC;entryX=1;entryY=1;entryDx=0;entryDy=0;" parent="1" target="_aCOL6AofIa1MBWSSgmZ-9" edge="1">
          <mxGeometry width="50" height="50" relative="1" as="geometry">
            <mxPoint x="880" y="40" as="sourcePoint" />
            <mxPoint x="930" y="30" as="targetPoint" />
          </mxGeometry>
        </mxCell>
        <mxCell id="7TQnCxTbO33pNNRYlMxs-21" value="" style="shape=flexArrow;endArrow=classic;html=1;rounded=0;fillColor=#CCFFCC;strokeColor=none;startArrow=none;width=20;endWidth=34.11764705882353;endSize=9.8;" parent="1" edge="1">
          <mxGeometry width="50" height="50" relative="1" as="geometry">
            <mxPoint x="880" y="199.41" as="sourcePoint" />
            <mxPoint x="1080" y="199.90999999999988" as="targetPoint" />
            <Array as="points" />
          </mxGeometry>
        </mxCell>
        <mxCell id="7TQnCxTbO33pNNRYlMxs-22" value="&lt;span style=&quot;font-size: 18px;&quot;&gt;回滚流程&lt;/span&gt;" style="text;html=1;strokeColor=none;fillColor=none;align=center;verticalAlign=middle;whiteSpace=wrap;rounded=0;fontSize=24;" parent="1" vertex="1">
          <mxGeometry x="900" y="180" width="160" height="40" as="geometry" />
        </mxCell>
        <mxCell id="7TQnCxTbO33pNNRYlMxs-24" value="" style="endArrow=classic;html=1;rounded=0;dashed=1;fontSize=18;strokeWidth=1;fillColor=#CCCCCC;entryX=1;entryY=1;entryDx=0;entryDy=0;" parent="1" edge="1">
          <mxGeometry width="50" height="50" relative="1" as="geometry">
            <mxPoint x="1080" y="160" as="sourcePoint" />
            <mxPoint x="1080" y="320" as="targetPoint" />
          </mxGeometry>
        </mxCell>
        <mxCell id="7TQnCxTbO33pNNRYlMxs-27" value="&lt;font style=&quot;font-size: 24px;&quot;&gt;......&lt;/font&gt;" style="text;html=1;strokeColor=none;fillColor=none;align=center;verticalAlign=middle;whiteSpace=wrap;rounded=0;fontSize=18;" parent="1" vertex="1">
          <mxGeometry x="340" y="280" width="80" height="39" as="geometry" />
        </mxCell>
        <mxCell id="LNZbFVOOp2XCz4AuYen3-2" value="" style="verticalLabelPosition=bottom;html=1;verticalAlign=top;align=center;strokeColor=none;fillColor=#00BEF2;shape=mxgraph.azure.sql_reporting;fontSize=24;" parent="1" vertex="1">
          <mxGeometry x="960" y="40" width="60" height="80" as="geometry" />
        </mxCell>
        <mxCell id="LNZbFVOOp2XCz4AuYen3-5" value="" style="shape=flexArrow;endArrow=classic;html=1;rounded=0;fillColor=#CCFFCC;strokeColor=none;startArrow=none;width=20;endWidth=34.11764705882353;endSize=9.8;" parent="1" edge="1">
          <mxGeometry width="50" height="50" relative="1" as="geometry">
            <mxPoint x="220" y="79.49999999999997" as="sourcePoint" />
            <mxPoint x="340" y="80.5" as="targetPoint" />
            <Array as="points" />
          </mxGeometry>
        </mxCell>
        <mxCell id="LNZbFVOOp2XCz4AuYen3-6" value="" style="shape=flexArrow;endArrow=classic;html=1;rounded=0;fillColor=#F19C99;strokeColor=none;startArrow=none;width=20;endWidth=34.11764705882353;endSize=9.8;" parent="1" edge="1">
          <mxGeometry width="50" height="50" relative="1" as="geometry">
            <mxPoint x="220" y="140" as="sourcePoint" />
            <mxPoint x="340" y="141" as="targetPoint" />
            <Array as="points" />
          </mxGeometry>
        </mxCell>
        <mxCell id="LNZbFVOOp2XCz4AuYen3-7" value="" style="shape=flexArrow;endArrow=classic;html=1;rounded=0;fillColor=#CCCCCC;strokeColor=none;startArrow=none;width=20;endWidth=34.11764705882353;endSize=9.8;" parent="1" edge="1">
          <mxGeometry width="50" height="50" relative="1" as="geometry">
            <mxPoint x="220" y="199.5" as="sourcePoint" />
            <mxPoint x="340" y="200.5" as="targetPoint" />
            <Array as="points" />
          </mxGeometry>
        </mxCell>
        <mxCell id="LNZbFVOOp2XCz4AuYen3-8" value="&lt;font style=&quot;font-size: 18px;&quot;&gt;执行流&lt;/font&gt;" style="text;html=1;strokeColor=none;fillColor=none;align=center;verticalAlign=middle;whiteSpace=wrap;rounded=0;fontSize=24;" parent="1" vertex="1">
          <mxGeometry x="220" y="60" width="120" height="40" as="geometry" />
        </mxCell>
        <mxCell id="LNZbFVOOp2XCz4AuYen3-9" value="&lt;font style=&quot;font-size: 18px;&quot;&gt;IO 流&lt;/font&gt;" style="text;html=1;strokeColor=none;fillColor=none;align=center;verticalAlign=middle;whiteSpace=wrap;rounded=0;fontSize=24;" parent="1" vertex="1">
          <mxGeometry x="220" y="120" width="120" height="40" as="geometry" />
        </mxCell>
        <mxCell id="LNZbFVOOp2XCz4AuYen3-10" value="&lt;font style=&quot;font-size: 18px;&quot;&gt;等待流&lt;/font&gt;" style="text;html=1;strokeColor=none;fillColor=none;align=center;verticalAlign=middle;whiteSpace=wrap;rounded=0;fontSize=24;" parent="1" vertex="1">
          <mxGeometry x="220" y="180" width="120" height="40" as="geometry" />
        </mxCell>
        <mxCell id="LNZbFVOOp2XCz4AuYen3-12" value="" style="shape=flexArrow;endArrow=classic;html=1;rounded=0;fillColor=#F19C99;strokeColor=none;startArrow=none;width=20;endWidth=34.11764705882353;endSize=9.8;" parent="1" edge="1">
          <mxGeometry width="50" height="50" relative="1" as="geometry">
            <mxPoint x="880" y="79.49999999999997" as="sourcePoint" />
            <mxPoint x="960" y="80" as="targetPoint" />
            <Array as="points" />
          </mxGeometry>
        </mxCell>
        <mxCell id="LNZbFVOOp2XCz4AuYen3-13" value="&lt;font style=&quot;font-size: 18px;&quot;&gt;IO输出&lt;/font&gt;" style="text;html=1;strokeColor=none;fillColor=none;align=center;verticalAlign=middle;whiteSpace=wrap;rounded=0;fontSize=24;" parent="1" vertex="1">
          <mxGeometry x="890" y="60" width="60" height="40" as="geometry" />
        </mxCell>
        <mxCell id="LNZbFVOOp2XCz4AuYen3-15" value="" style="shape=flexArrow;endArrow=classic;html=1;rounded=0;fillColor=#F19C99;strokeColor=none;startArrow=none;width=20;endWidth=34.11764705882353;endSize=9.8;exitX=0.5;exitY=1;exitDx=0;exitDy=0;exitPerimeter=0;entryX=0.563;entryY=0.25;entryDx=0;entryDy=0;entryPerimeter=0;" parent="1" source="LNZbFVOOp2XCz4AuYen3-2" target="7TQnCxTbO33pNNRYlMxs-22" edge="1">
          <mxGeometry width="50" height="50" relative="1" as="geometry">
            <mxPoint x="1040" y="120" as="sourcePoint" />
            <mxPoint x="1120" y="120.5" as="targetPoint" />
            <Array as="points" />
          </mxGeometry>
        </mxCell>
        <mxCell id="LNZbFVOOp2XCz4AuYen3-14" value="&lt;font style=&quot;font-size: 18px;&quot;&gt;IO&lt;br&gt;输入&lt;br&gt;&lt;/font&gt;" style="text;html=1;strokeColor=none;fillColor=none;align=center;verticalAlign=middle;whiteSpace=wrap;rounded=0;fontSize=24;" parent="1" vertex="1">
          <mxGeometry x="950.5" y="135" width="79" height="40" as="geometry" />
        </mxCell>
        <mxCell id="LNZbFVOOp2XCz4AuYen3-16" value="&lt;font style=&quot;font-size: 18px;&quot;&gt;备份镜像文件&lt;/font&gt;" style="text;html=1;strokeColor=none;fillColor=none;align=center;verticalAlign=middle;whiteSpace=wrap;rounded=0;" parent="1" vertex="1">
          <mxGeometry x="1020" y="55" width="120" height="50" as="geometry" />
        </mxCell>
      </root>
    </mxGraphModel>
  </diagram>
</mxfile>
